<svg width="210" height="210" viewBox="0 0 210 210" fill="none" xmlns="http://www.w3.org/2000/svg">
<path d="M105 0C162.99 0 210 47.0101 210 105C210 162.99 162.99 210 105 210C47.0101 210 0 162.99 0 105C0 47.0101 47.0101 0 105 0Z" fill="#FFC107"/>
<path d="M138.824 84.411H68.7999L61.5164 53.2635C56.4322 53.0594 52.3564 48.854 52.3564 43.7214C52.3564 38.4515 56.6398 34.172 61.9094 34.172C67.1791 34.172 71.4624 38.4515 71.4624 43.7214C71.4624 46.2543 70.4352 48.6573 68.6774 50.4227C80.2887 62.9722 89.8566 62.0006 98.7384 47.0739C96.4503 45.2901 95.0594 42.5272 95.0594 39.553C95.0594 34.2869 99.3428 30 104.612 30C109.882 30 114.165 34.2834 114.165 39.553C114.165 42.7237 112.56 45.6534 110.008 47.4039C117.644 62.071 127.42 62.82 140.184 50.4412C138.638 48.713 137.762 46.4731 137.762 44.0959C137.762 38.8298 142.046 34.5503 147.312 34.5503C152.578 34.5503 156.865 38.8298 156.865 44.0959C156.865 49.3435 152.615 53.6119 147.378 53.6489L138.824 84.411ZM72.197 80.1352H135.571L142.899 53.7641C127.387 68.6128 114.088 66.1764 105.221 47.4003L104.416 45.6982L103.5 47.3633C93.1352 66.1951 80.0035 68.5388 66.0558 53.8866L72.197 80.1352ZM145.317 49.0728L146.222 49.2582C149.545 49.9591 152.579 47.3669 152.579 44.0997C152.579 41.1959 150.216 38.8298 147.309 38.8298C144.401 38.8298 142.039 41.1959 142.039 44.0997C142.039 45.8909 142.947 47.5487 144.475 48.5276L145.317 49.0728ZM61.9094 38.448C59.002 38.448 56.6396 40.814 56.6396 43.7178C56.6396 46.6252 59.0018 48.9913 61.9094 48.9913C62.2209 48.9913 62.5177 48.9467 62.8144 48.8948L63.6784 48.7428L64.498 48.2756C66.1781 47.3188 67.1793 45.6129 67.1793 43.7178C67.1793 40.814 64.8133 38.448 61.9094 38.448ZM104.606 34.2796C101.698 34.2796 99.3356 36.6456 99.3356 39.553C99.3356 41.6334 100.574 43.5249 102.488 44.3704L104.405 45.2159L106.415 44.4742C108.485 43.714 109.875 41.7372 109.875 39.553C109.875 36.6456 107.513 34.2796 104.606 34.2796Z" fill="#231F20" stroke="black"/>
<path d="M136.362 93H71.2669C70.0801 93 69.1123 92.032 69.1123 90.8454C69.1123 89.6586 70.0803 88.6908 71.2669 88.6908H136.362C137.549 88.6908 138.517 89.6588 138.517 90.8454C138.517 92.0284 137.549 93 136.362 93Z" fill="#231F20" stroke="black"/>
<path fill-rule="evenodd" clip-rule="evenodd" d="M68.803 90.7188C68.803 89.9977 69.1388 89.3062 69.7366 88.7963C70.3343 88.2864 71.1451 88 71.9905 88H135.74C136.586 88 137.397 88.2864 137.994 88.7963C138.592 89.3062 138.928 89.9977 138.928 90.7188C138.928 93.6441 138.851 96.4281 138.711 99.0708C141.23 99.4265 143.64 100.209 145.799 101.372C147.958 102.535 149.822 104.054 151.281 105.842C152.74 107.629 153.765 109.647 154.295 111.777C154.825 113.908 154.85 116.107 154.368 118.245C153.885 120.384 152.906 122.419 151.487 124.229C150.068 126.04 148.238 127.59 146.106 128.787C143.974 129.985 141.582 130.807 139.071 131.204C136.561 131.6 133.982 131.564 131.488 131.098C126.452 141.239 119.516 146.198 113.428 147.47V159.286L122.512 161.221C123.749 161.482 124.916 161.955 125.936 162.608L137.653 170.106C138.188 170.449 138.583 170.926 138.783 171.471C138.982 172.015 138.976 172.6 138.764 173.141C138.553 173.682 138.147 174.153 137.604 174.487C137.062 174.82 136.409 175 135.74 175H71.9905C71.3215 175 70.6694 174.82 70.1267 174.487C69.584 174.153 69.1781 173.682 68.9665 173.141C68.755 172.6 68.7485 172.015 68.9479 171.471C69.1474 170.926 69.5428 170.449 70.078 170.106L81.7952 162.608C82.8152 161.955 83.9818 161.482 85.2186 161.221L94.303 159.286V147.47C88.2148 146.198 81.2788 141.239 76.2426 131.092C73.7473 131.561 71.1671 131.599 68.6544 131.204C66.1416 130.808 63.7472 129.987 61.6127 128.789C59.4781 127.592 57.6466 126.041 56.2264 124.229C54.8062 122.417 53.826 120.381 53.3437 118.241C52.8615 116.101 52.8869 113.9 53.4186 111.768C53.9503 109.636 54.9773 107.617 56.4392 105.83C57.9011 104.042 59.7681 102.523 61.9299 101.361C64.0918 100.199 66.5047 99.4185 69.0261 99.0653C68.876 96.285 68.8016 93.502 68.803 90.7188ZM69.4341 104.53C66.1075 105.049 63.159 106.674 61.2372 109.048C59.3153 111.421 58.5776 114.348 59.1863 117.186C59.7949 120.023 61.7002 122.538 64.4828 124.177C67.2654 125.816 70.6975 126.446 74.0241 125.927C71.9012 120.217 70.2756 113.17 69.4341 104.53ZM133.713 125.927C137.04 126.446 140.472 125.816 143.255 124.177C146.037 122.538 147.942 120.023 148.551 117.186C149.16 114.348 148.422 111.421 146.5 109.048C144.578 106.674 141.63 105.049 138.303 104.53C137.455 113.176 135.83 120.217 133.713 125.927ZM75.2035 93.4375C75.2481 96.2487 75.3692 98.9076 75.5605 101.425C76.3892 112.452 78.4738 120.707 81.1067 126.802C86.6147 139.548 94.201 142.375 97.4905 142.375C98.3358 142.375 99.1466 142.661 99.7444 143.171C100.342 143.681 100.678 144.373 100.678 145.094V159.286C100.678 160.498 100.203 161.675 99.3287 162.631C98.4543 163.586 97.2307 164.265 95.8521 164.56L86.7613 166.496C86.3486 166.583 85.9606 166.74 85.6202 166.958L81.553 169.562H126.178L122.111 166.958C121.768 166.74 121.378 166.583 120.963 166.496L111.879 164.56C110.5 164.265 109.277 163.586 108.402 162.631C107.528 161.675 107.053 160.498 107.053 159.286V145.094C107.053 144.373 107.389 143.681 107.987 143.171C108.584 142.661 109.395 142.375 110.24 142.375C113.53 142.375 121.116 139.548 126.624 126.802C129.257 120.712 131.342 112.447 132.17 101.425C132.362 98.9076 132.483 96.2487 132.527 93.4375H75.2035Z" fill="black"/>
</svg>
