<?xml version="1.0" encoding="utf-8"?>
<!DOCTYPE svg PUBLIC '-//W3C//DTD SVG 1.1//EN' 'http://www.w3.org/Graphics/SVG/1.1/DTD/svg11.dtd'>
<svg height="40px" width="50px" version="1.1" viewBox="0 0 64 64" xml:space="preserve" xmlns="http://www.w3.org/2000/svg" xmlns:xlink="http://www.w3.org/1999/xlink">
<g>
	<path d="M55,13V30.7a24.033,24.033,0,0,1-8.71,18.5L32,61,17.71,49.2A24.033,24.033,0,0,1,9,30.7V13L32,3ZM49,27.87V16.93L32,9.54,15,16.93V27.87a24.094,24.094,0,0,0,8.71,18.5L32,53.22l8.29-6.85A24.094,24.094,0,0,0,49,27.87Z" style="fill:#bddbff"/>
	<path d="M35.54,26.46A5.022,5.022,0,1,1,32,25,5.022,5.022,0,0,1,35.54,26.46Z" style="fill:#bddbff"/>
	<path d="M55.4,12.083l-23-10a1,1,0,0,0-.8,0l-23,10A1,1,0,0,0,8,13V30.7A24.919,24.919,0,0,0,17.078,49.97l14.285,11.8a1,1,0,0,0,1.274,0l14.285-11.8A24.919,24.919,0,0,0,56,30.7V13A1,1,0,0,0,55.4,12.083ZM54,30.7a22.925,22.925,0,0,1-8.352,17.732L32,59.7,18.352,48.428A22.925,22.925,0,0,1,10,30.7V13.656L32,4.09l22,9.566Z" style="fill:#3d9ae2"/>
	<path d="M39.648,45.6,32,51.92,24.352,45.6q-.351-.288-.686-.589L22.334,46.5q.365.327.744.64l8.285,6.844a1,1,0,0,0,1.274,0l8.285-6.843q.38-.314.745-.641l-1.334-1.49C40.109,45.214,39.882,45.41,39.648,45.6Z" style="fill:#3d9ae2"/>
	<path d="M31.6,8.625l-17,7.392a1,1,0,0,0-.6.917V25h2V17.59l16-6.957L48,17.59V25h2V16.934a1,1,0,0,0-.6-.917l-17-7.392A1,1,0,0,0,31.6,8.625Z" style="fill:#3d9ae2"/>
	<rect height="2" style="fill:#3d9ae2" width="2" x="31" y="29"/>
	<path d="M40.278,29H37.91a5.964,5.964,0,0,0-1.025-2.471l1.676-1.676a2.016,2.016,0,0,0,.51.075,2,2,0,0,0,1.414-.584h0a2,2,0,1,0-3.338-.9l-1.676,1.675A5.964,5.964,0,0,0,33,24.09V21.722a2,2,0,1,0-2,0V24.09a5.964,5.964,0,0,0-2.471,1.025L26.853,23.44a1.992,1.992,0,0,0-.51-1.925h0a2.015,2.015,0,1,0-.9,3.339l1.676,1.676A5.964,5.964,0,0,0,26.09,29H23.722a2,2,0,1,0,0,2H26.09a5.964,5.964,0,0,0,1.025,2.471l-1.676,1.676a1.994,1.994,0,0,0-1.924.509h0a2,2,0,1,0,3.338.9l1.676-1.675A5.964,5.964,0,0,0,31,35.91v2.368a2,2,0,1,0,2,0V35.91a5.964,5.964,0,0,0,2.471-1.025l1.676,1.675a1.992,1.992,0,0,0,.51,1.925h0a2,2,0,1,0,.9-3.339l-1.676-1.676A5.964,5.964,0,0,0,37.91,31h2.368a2,2,0,1,0,0-2Zm-5.571,2.293-1.414,1.414.726.726a3.878,3.878,0,0,1-4.038,0l.726-.726-1.414-1.414-.726.726a3.878,3.878,0,0,1,0-4.038l.726.726,1.414-1.414-.726-.726a3.878,3.878,0,0,1,4.038,0l-.726.726,1.414,1.414.726-.726a3.878,3.878,0,0,1,0,4.038Z" style="fill:#3d9ae2"/>
	<path d="M32,14A16,16,0,1,0,48,30,16.019,16.019,0,0,0,32,14Zm0,30A14,14,0,1,1,46,30,14.015,14.015,0,0,1,32,44Z" style="fill:#3d9ae2"/>
</g>
</svg>
