<svg width="32" height="32" viewBox="0 0 179 179" fill="none" xmlns="http://www.w3.org/2000/svg">
<path d="M89.5 0C138.929 0 179 40.0705 179 89.5C179 138.929 138.929 179 89.5 179C40.0705 179 0 138.929 0 89.5C0 40.0705 40.0705 0 89.5 0Z" fill="#FFC107"/>
<path d="M124.824 71.411H54.7999L47.5164 40.2635C42.4322 40.0594 38.3564 35.854 38.3564 30.7214C38.3564 25.4515 42.6398 21.172 47.9094 21.172C53.1791 21.172 57.4624 25.4515 57.4624 30.7214C57.4624 33.2543 56.4352 35.6573 54.6774 37.4227C66.2887 49.9722 75.8566 49.0006 84.7384 34.0739C82.4503 32.2901 81.0594 29.5272 81.0594 26.553C81.0594 21.2869 85.3428 17 90.6124 17C95.8821 17 100.165 21.2834 100.165 26.553C100.165 29.7237 98.5596 32.6534 96.0082 34.4039C103.644 49.071 113.42 49.82 126.184 37.4412C124.638 35.713 123.762 33.4731 123.762 31.0959C123.762 25.8298 128.046 21.5503 133.312 21.5503C138.578 21.5503 142.865 25.8298 142.865 31.0959C142.865 36.3435 138.615 40.6119 133.378 40.6489L124.824 71.411ZM58.197 67.1352H121.571L128.899 40.7641C113.387 55.6128 100.088 53.1764 91.2211 34.4003L90.4164 32.6982L89.5005 34.3633C79.1352 53.1951 66.0035 55.5388 52.0558 40.8866L58.197 67.1352ZM131.317 36.0728L132.222 36.2582C135.545 36.9591 138.579 34.3669 138.579 31.0997C138.579 28.1959 136.216 25.8298 133.309 25.8298C130.401 25.8298 128.039 28.1959 128.039 31.0997C128.039 32.8909 128.947 34.5487 130.475 35.5276L131.317 36.0728ZM47.9094 25.448C45.002 25.448 42.6396 27.814 42.6396 30.7178C42.6396 33.6252 45.0018 35.9913 47.9094 35.9913C48.2209 35.9913 48.5177 35.9467 48.8144 35.8948L49.6784 35.7428L50.498 35.2756C52.1781 34.3188 53.1793 32.6129 53.1793 30.7178C53.1793 27.814 50.8133 25.448 47.9094 25.448ZM90.6055 21.2796C87.6981 21.2796 85.3356 23.6456 85.3356 26.553C85.3356 28.6334 86.5744 30.5249 88.4879 31.3704L90.4052 32.2159L92.4152 31.4742C94.4845 30.714 95.8752 28.7372 95.8752 26.553C95.8752 23.6456 93.5129 21.2796 90.6055 21.2796Z" fill="#231F20" stroke="black"/>
<path d="M122.362 80H57.2669C56.0801 80 55.1123 79.032 55.1123 77.8454C55.1123 76.6586 56.0803 75.6908 57.2669 75.6908H122.362C123.549 75.6908 124.517 76.6588 124.517 77.8454C124.517 79.0284 123.549 80 122.362 80Z" fill="#231F20" stroke="black"/>
<path fill-rule="evenodd" clip-rule="evenodd" d="M54.803 77.7188C54.803 76.9977 55.1388 76.3062 55.7366 75.7963C56.3343 75.2864 57.1451 75 57.9905 75H121.74C122.586 75 123.397 75.2864 123.994 75.7963C124.592 76.3062 124.928 76.9977 124.928 77.7188C124.928 80.6441 124.851 83.4281 124.711 86.0708C127.23 86.4265 129.64 87.2089 131.799 88.3718C133.958 89.5347 135.822 91.0545 137.281 92.8416C138.74 94.6287 139.765 96.6469 140.295 98.7772C140.825 100.908 140.85 103.107 140.368 105.245C139.885 107.384 138.906 109.419 137.487 111.229C136.068 113.04 134.238 114.59 132.106 115.787C129.974 116.985 127.582 117.807 125.071 118.204C122.561 118.6 119.982 118.564 117.488 118.098C112.452 128.239 105.516 133.198 99.428 134.47V146.286L108.512 148.221C109.749 148.482 110.916 148.955 111.936 149.608L123.653 157.106C124.188 157.449 124.583 157.926 124.783 158.471C124.982 159.015 124.976 159.6 124.764 160.141C124.553 160.682 124.147 161.153 123.604 161.487C123.062 161.82 122.409 162 121.74 162H57.9905C57.3215 162 56.6694 161.82 56.1267 161.487C55.584 161.153 55.1781 160.682 54.9665 160.141C54.755 159.6 54.7485 159.015 54.9479 158.471C55.1474 157.926 55.5428 157.449 56.078 157.106L67.7952 149.608C68.8152 148.955 69.9818 148.482 71.2186 148.221L80.303 146.286V134.47C74.2148 133.198 67.2788 128.239 62.2426 118.092C59.7473 118.561 57.1671 118.599 54.6544 118.204C52.1416 117.808 49.7472 116.987 47.6127 115.789C45.4781 114.592 43.6466 113.041 42.2264 111.229C40.8062 109.417 39.826 107.381 39.3437 105.241C38.8615 103.101 38.8869 100.9 39.4186 98.768C39.9503 96.6363 40.9773 94.6171 42.4392 92.8296C43.9011 91.0421 45.7681 89.5226 47.9299 88.3608C50.0918 87.199 52.5047 86.4185 55.0261 86.0653C54.876 83.285 54.8016 80.502 54.803 77.7188ZM55.4341 91.53C52.1075 92.0492 49.159 93.6742 47.2372 96.0476C45.3153 98.421 44.5776 101.348 45.1863 104.186C45.7949 107.023 47.7002 109.538 50.4828 111.177C53.2654 112.816 56.6975 113.446 60.0241 112.927C57.9012 107.217 56.2756 100.17 55.4341 91.53ZM119.713 112.927C123.04 113.446 126.472 112.816 129.255 111.177C132.037 109.538 133.942 107.023 134.551 104.186C135.16 101.348 134.422 98.421 132.5 96.0476C130.578 93.6742 127.63 92.0492 124.303 91.53C123.455 100.176 121.83 107.217 119.713 112.927ZM61.2035 80.4375C61.2481 83.2487 61.3692 85.9076 61.5605 88.4252C62.3892 99.4524 64.4738 107.707 67.1067 113.802C72.6147 126.548 80.201 129.375 83.4905 129.375C84.3358 129.375 85.1466 129.661 85.7444 130.171C86.3421 130.681 86.678 131.373 86.678 132.094V146.286C86.6779 147.498 86.203 148.675 85.3287 149.631C84.4543 150.586 83.2307 151.265 81.8521 151.56L72.7613 153.496C72.3486 153.583 71.9606 153.74 71.6202 153.958L67.553 156.562H112.178L108.111 153.958C107.768 153.74 107.378 153.583 106.963 153.496L97.8788 151.56C96.5003 151.265 95.2766 150.586 94.4023 149.631C93.5279 148.675 93.053 147.498 93.053 146.286V132.094C93.053 131.373 93.3888 130.681 93.9866 130.171C94.5843 129.661 95.3951 129.375 96.2405 129.375C99.53 129.375 107.116 126.548 112.624 113.802C115.257 107.712 117.342 99.447 118.17 88.4252C118.362 85.9076 118.483 83.2487 118.527 80.4375H61.2035Z" fill="black"/>
</svg>
